<svg width="40" height="40" viewBox="0 0 40 40" fill="none" xmlns="http://www.w3.org/2000/svg">
<path d="M24.3167 13.333L20 17.6497L15.6833 13.333L13.3333 15.683L17.65 19.9997L13.3333 24.3163L15.6833 26.6663L20 22.3497L24.3167 26.6663L26.6667 24.3163L22.35 19.9997L26.6667 15.683L24.3167 13.333ZM20 3.33301C10.7833 3.33301 3.33333 10.783 3.33333 19.9997C3.33333 29.2163 10.7833 36.6663 20 36.6663C29.2167 36.6663 36.6667 29.2163 36.6667 19.9997C36.6667 10.783 29.2167 3.33301 20 3.33301ZM20 33.333C12.65 33.333 6.66667 27.3497 6.66667 19.9997C6.66667 12.6497 12.65 6.66634 20 6.66634C27.35 6.66634 33.3333 12.6497 33.3333 19.9997C33.3333 27.3497 27.35 33.333 20 33.333Z" fill="#3B1C1C"/>
</svg>
