<svg width="34" height="34" viewBox="0 0 34 34" fill="none" xmlns="http://www.w3.org/2000/svg">
<path d="M21.3167 10.333L17 14.6497L12.6833 10.333L10.3333 12.683L14.65 16.9997L10.3333 21.3163L12.6833 23.6663L17 19.3497L21.3167 23.6663L23.6667 21.3163L19.35 16.9997L23.6667 12.683L21.3167 10.333ZM17 0.333008C7.78333 0.333008 0.333334 7.78301 0.333334 16.9997C0.333334 26.2163 7.78333 33.6663 17 33.6663C26.2167 33.6663 33.6667 26.2163 33.6667 16.9997C33.6667 7.78301 26.2167 0.333008 17 0.333008ZM17 30.333C9.65 30.333 3.66667 24.3497 3.66667 16.9997C3.66667 9.64968 9.65 3.66634 17 3.66634C24.35 3.66634 30.3333 9.64968 30.3333 16.9997C30.3333 24.3497 24.35 30.333 17 30.333Z" fill="#3B1C1C"/>
</svg>
