<svg width="40" height="40" viewBox="0 0 40 40" fill="none" xmlns="http://www.w3.org/2000/svg">
<path d="M20 3.33301C10.8 3.33301 3.33333 10.7997 3.33333 19.9997C3.33333 29.1997 10.8 36.6663 20 36.6663C29.2 36.6663 36.6667 29.1997 36.6667 19.9997C36.6667 10.7997 29.2 3.33301 20 3.33301ZM20 33.333C12.65 33.333 6.66667 27.3497 6.66667 19.9997C6.66667 12.6497 12.65 6.66634 20 6.66634C27.35 6.66634 33.3333 12.6497 33.3333 19.9997C33.3333 27.3497 27.35 33.333 20 33.333ZM27.65 12.633L16.6667 23.6163L12.35 19.3163L10 21.6663L16.6667 28.333L30 14.9997L27.65 12.633Z" fill="#1C3B22"/>
</svg>
