<svg width="40" height="40" viewBox="0 0 40 40" fill="none" xmlns="http://www.w3.org/2000/svg">
<path d="M19.9833 3.33301C10.7833 3.33301 3.33333 10.7997 3.33333 19.9997C3.33333 29.1997 10.7833 36.6663 19.9833 36.6663C29.2 36.6663 36.6667 29.1997 36.6667 19.9997C36.6667 10.7997 29.2 3.33301 19.9833 3.33301ZM20 33.333C12.6333 33.333 6.66667 27.3663 6.66667 19.9997C6.66667 12.633 12.6333 6.66634 20 6.66634C27.3667 6.66634 33.3333 12.633 33.3333 19.9997C33.3333 27.3663 27.3667 33.333 20 33.333ZM20.8333 11.6663H18.3333V21.6663L27.0833 26.9163L28.3333 24.8663L20.8333 20.4163V11.6663Z" fill="#534923"/>
</svg>
