<svg width="34" height="34" viewBox="0 0 34 34" fill="none" xmlns="http://www.w3.org/2000/svg">
<path d="M16.9833 0.333008C7.78333 0.333008 0.333334 7.79967 0.333334 16.9997C0.333334 26.1997 7.78333 33.6663 16.9833 33.6663C26.2 33.6663 33.6667 26.1997 33.6667 16.9997C33.6667 7.79967 26.2 0.333008 16.9833 0.333008ZM17 30.333C9.63333 30.333 3.66667 24.3663 3.66667 16.9997C3.66667 9.63301 9.63333 3.66634 17 3.66634C24.3667 3.66634 30.3333 9.63301 30.3333 16.9997C30.3333 24.3663 24.3667 30.333 17 30.333ZM17.8333 8.66634H15.3333V18.6663L24.0833 23.9163L25.3333 21.8663L17.8333 17.4163V8.66634Z" fill="#534923"/>
</svg>
